<?xml version="1.0" encoding="utf-8"?>
<!-- Generator: Adobe Illustrator 27.9.0, SVG Export Plug-In . SVG Version: 6.00 Build 0)  -->
<svg version="1.1" id="Ebene_1" xmlns="http://www.w3.org/2000/svg" xmlns:xlink="http://www.w3.org/1999/xlink" x="0px" y="0px"
	 width="104.7px" height="19.7px" viewBox="0 0 104.7 19.7" style="enable-background:new 0 0 104.7 19.7;" xml:space="preserve">
<style type="text/css">
	.st0{fill:#FFFFFF;}
</style>
<g>
	<g>
		<g>
			<path class="st0" d="M7.3,7.5C6,7.1,5.1,6.7,4.5,6.4C3.9,7,3.6,7.6,3.6,8.2c0,0.8,1.2,1.7,3.5,2.5l3.9,1.4l3,1.1
				c0.1,0,0.4,0.1,0.8,0.3c0.5-0.5,0.7-1.1,0.7-1.7C15.6,10.5,12.8,9.1,7.3,7.5z"/>
			<path class="st0" d="M6,0.1C6.3,0.9,7.7,1.8,10,2.6l4.3,1.5c3,1,4.5,2.7,4.5,4.9c0,1.8-0.9,3.5-2.6,5.1c1.3,1.1,2,2.5,2,4.1
				c0,0.5,0,1-0.1,1.4h1.4V0.1H6z"/>
			<path class="st0" d="M10.4,17.6c-3.8-1-6.4-2-7.8-2.9s-2-2.1-2-3.7c0-1.9,0.9-3.7,2.7-5.5c-1-0.9-1.5-2.2-1.5-3.7
				c0-0.6,0.1-1.2,0.2-1.7h-2.2v19.6h14.4C13.7,18.8,12.4,18.1,10.4,17.6z"/>
		</g>
	</g>
	<g>
		<path class="st0" d="M27.6,18.5c-0.2-0.1-0.2-0.2-0.2-0.3c0-0.3,0.1-1.2,0.1-1.9c0.4,1.5,1,2.1,2.4,2.1c1.3,0,2.1-0.7,2.1-1.9
			c0-1.2-0.9-1.9-2-2.7c-1.1-0.9-2.3-1.9-2.3-3.4c0-1.6,1.2-2.6,3-2.6c1.1,0,1.6,0.2,2,0.2v2c-0.3-1.1-0.9-1.7-2.2-1.7
			c-1.1,0-1.8,0.5-1.8,1.7c0,1.1,1.1,1.9,2.2,2.8c1.1,0.8,2.2,1.8,2.2,3.3c0,1.7-1.3,2.8-3.4,2.8C28.9,18.8,28.2,18.7,27.6,18.5z"/>
	</g>
	<g>
		<path class="st0" d="M38.3,17.7c0.1-0.6,0.1-1.8,0.1-3.8c0-1.6,0-3.8,0-5.4h-2.4c-0.8,0-1.2,0.5-1.7,1.7l0.1-2.2
			c0.4,0,0.7,0.1,1.1,0.1h7.1c0.4,0,0.7,0,1.1-0.1l-0.1,2.2C43,9,42.9,8.4,42,8.4h-2.5v5.4c0,2,0,3.1,0.1,3.8c0,0.5,0.3,0.8,1.1,1.1
			h-3.4C38,18.5,38.2,18.2,38.3,17.7z"/>
	</g>
	<g>
		<path class="st0" d="M46,17.7c0.1-0.6,0.1-1.7,0.1-3.1v-2.5c0-1.2,0-2,0-2.9c0-0.5-0.3-0.9-1.1-1.2h1.6c0.6,0,1.3,0,2,0
			c2.1,0,3.5,0.9,3.5,2.7c0,1.5-0.7,2.3-1.8,3.2c1.1,1.5,2,2.8,2.7,3.7c0.6,0.6,1,1,1.5,1.3h-1.9c-0.3,0-0.3,0-0.5-0.2
			c-0.4-0.6-0.8-1.3-1.4-2.1c-0.5-0.9-1.2-1.8-1.4-2.2c0-0.1-0.1-0.1-0.2-0.1l-1.9,0c0,2,0,2.8,0.1,3.6c0,0.5,0.3,0.8,1.2,1.1H45
			C45.8,18.4,46,18.1,46,17.7z M50.9,11.3c0-1.8-0.8-2.9-2.5-2.9c-0.3,0-0.6,0-0.9,0.1c-0.1,0-0.2,0.1-0.2,0.3v4.6
			c0,0.1,0,0.1,0.1,0.2c0.4,0.1,0.9,0.2,1.5,0.2C50.3,13.7,50.9,12.7,50.9,11.3z"/>
	</g>
	<g>
		<path class="st0" d="M56.6,17.7c0.1-0.6,0.1-1.8,0.1-3.8c0-1.7,0-3.1,0-4.7c0-0.6-0.3-0.9-1.1-1.2H59c-0.9,0.3-1.2,0.6-1.2,1.2
			v4.7c0,2,0,3.1,0.1,3.8c0,0.5,0.3,0.8,1.1,1.1h-3.4C56.3,18.5,56.5,18.2,56.6,17.7z"/>
	</g>
	<g>
		<path class="st0" d="M66.7,18.7h-5c0.9-0.4,1-0.7,1.1-1.2c0.1-0.6,0.1-1.7,0.1-3.7c0-1.7,0-2.9,0-4.6c0-0.6-0.3-0.9-1.1-1.4h4.8
			c0.4,0,0.8,0,1.1-0.1v2.1c-0.5-1-0.7-1.5-1.6-1.5h-2v4.3h2.2c0.4,0,0.8-0.1,1.1-0.2l-0.1,1.5c-0.2-0.6-0.4-0.8-0.9-0.8H64v0.6
			c0,2,0,3,0.1,3.7c0.1,0.5,0.2,0.7,0.8,0.7h1.6c0.9,0,1.2-0.6,1.7-1.6l-0.2,2.1C67.5,18.7,67.2,18.7,66.7,18.7z"/>
	</g>
	<g>
		<path class="st0" d="M71.5,17.5c0.1-0.6,0.1-1.7,0.1-3.7c0-1.7,0-2.9,0-4.6c0-0.6-0.3-0.9-1.1-1.4h4.8c0.4,0,0.7,0,1.1-0.1v2.1
			c-0.5-1-0.7-1.5-1.6-1.5h-2v4.3h2c0.4,0,0.8-0.1,1.1-0.2l-0.1,1.5c-0.2-0.6-0.4-0.8-0.9-0.8h-2.1v0.6c0,2,0,3,0.1,3.7
			c0,0.5,0.3,0.9,1.1,1.2h-3.4C71.2,18.4,71.4,18,71.5,17.5z"/>
	</g>
	<g>
		<path class="st0" d="M83.4,18.7h-5c0.7-0.2,1-0.6,1.1-1c0.1-0.6,0.1-1.8,0.1-3.8c0-1.7,0-3.1,0-4.7c0-0.6-0.3-0.9-1.1-1.2h3.5
			c-0.9,0.3-1.2,0.6-1.2,1.2v4.7c0,1.2,0,3.3,0.1,3.7c0,0.5,0.2,0.7,0.8,0.7h1.6c0.9,0,1.2-0.6,1.7-1.6l-0.2,2.1
			C84.2,18.7,83.9,18.7,83.4,18.7z"/>
	</g>
	<g>
		<path class="st0" d="M91.6,18.7h-5c0.9-0.4,1-0.7,1.1-1.2c0.1-0.6,0.1-1.7,0.1-3.7c0-1.7,0-2.9,0-4.6c0-0.6-0.3-0.9-1.1-1.4h4.8
			c0.4,0,0.8,0,1.1-0.1v2.1c-0.5-1-0.7-1.5-1.6-1.5h-2v4.3H91c0.4,0,0.8-0.1,1.1-0.2L92,14.1c-0.2-0.6-0.4-0.8-0.9-0.8h-2.3v0.6
			c0,2,0,3,0.1,3.7c0.1,0.5,0.2,0.7,0.8,0.7h1.6c0.9,0,1.2-0.6,1.7-1.6l-0.2,2.1C92.3,18.7,92,18.7,91.6,18.7z"/>
	</g>
	<g>
		<path class="st0" d="M96.3,17.7c0.1-0.6,0.1-1.7,0.1-3.1v-2.5c0-1.2,0-2,0-2.9c0-0.5-0.3-0.9-1.1-1.2h1.6c0.6,0,1.3,0,2,0
			c2.1,0,3.5,0.9,3.5,2.7c0,1.5-0.7,2.3-1.8,3.2c1.1,1.5,2,2.8,2.7,3.7c0.6,0.6,1,1,1.5,1.3h-1.9c-0.3,0-0.3,0-0.5-0.2
			c-0.4-0.6-0.8-1.3-1.4-2.1c-0.5-0.9-1.2-1.8-1.4-2.2c0-0.1-0.1-0.1-0.2-0.1l-1.9,0c0,2,0,2.8,0.1,3.6c0,0.5,0.3,0.8,1.2,1.1h-3.4
			C96,18.4,96.2,18.1,96.3,17.7z M101.1,11.3c0-1.8-0.8-2.9-2.5-2.9c-0.3,0-0.6,0-0.9,0.1c-0.1,0-0.2,0.1-0.2,0.3v4.6
			c0,0.1,0,0.1,0.1,0.2c0.4,0.1,0.9,0.2,1.5,0.2C100.5,13.7,101.1,12.7,101.1,11.3z"/>
	</g>
	<g>
		<path class="st0" d="M27.9,1.4c0.3-0.1,0.8-0.1,1.2-0.1c0.7,0,1.1,0.1,1.4,0.4c0.2,0.2,0.4,0.5,0.4,0.9c0,0.6-0.4,1-0.9,1.2v0
			c0.4,0.1,0.6,0.5,0.7,1c0.2,0.7,0.3,1.1,0.4,1.3h-0.6c-0.1-0.1-0.2-0.5-0.3-1.1c-0.1-0.7-0.4-0.9-1-0.9h-0.6v2h-0.6V1.4z
			 M28.6,3.6h0.6c0.7,0,1.1-0.4,1.1-0.9c0-0.6-0.4-0.9-1.1-0.9c-0.3,0-0.5,0-0.6,0V3.6z"/>
		<path class="st0" d="M36.6,3.8h-1.8v1.7h2v0.5h-2.7V1.3h2.6v0.5h-1.9v1.5h1.8V3.8z"/>
		<path class="st0" d="M43.3,5.9c-0.2,0.1-0.7,0.2-1.2,0.2c-1.3,0-2.3-0.8-2.3-2.4c0-1.5,1-2.5,2.5-2.5c0.6,0,1,0.1,1.1,0.2L43.2,2
			c-0.2-0.1-0.6-0.2-0.9-0.2c-1.1,0-1.8,0.7-1.8,1.9c0,1.2,0.7,1.9,1.8,1.9c0.4,0,0.8-0.1,1-0.2L43.3,5.9z"/>
		<path class="st0" d="M47.2,1.3v2h2.3v-2h0.6v4.7h-0.6V3.8h-2.3v2.2h-0.6V1.3H47.2z"/>
		<path class="st0" d="M54.5,1.9H53V1.3h3.5v0.5h-1.4v4.2h-0.6V1.9z"/>
		<path class="st0" d="M59.4,5.3c0.3,0.2,0.7,0.3,1.1,0.3c0.6,0,1-0.3,1-0.8c0-0.4-0.3-0.7-0.9-0.9c-0.8-0.3-1.2-0.7-1.2-1.3
			c0-0.7,0.6-1.3,1.5-1.3c0.5,0,0.8,0.1,1,0.2L61.7,2c-0.1-0.1-0.5-0.2-0.9-0.2c-0.6,0-0.9,0.4-0.9,0.7c0,0.4,0.3,0.7,0.9,0.9
			c0.8,0.3,1.2,0.7,1.2,1.4c0,0.7-0.5,1.4-1.6,1.4c-0.5,0-1-0.1-1.2-0.3L59.4,5.3z"/>
		<path class="st0" d="M66.1,4.6l-0.5,1.5H65l1.6-4.7h0.7L69,6.1h-0.7l-0.5-1.5H66.1z M67.7,4.1l-0.5-1.4C67.1,2.4,67,2.2,67,1.9h0
			c-0.1,0.3-0.1,0.6-0.2,0.9l-0.5,1.4H67.7z"/>
		<path class="st0" d="M72.1,6.1V1.3h0.7l1.5,2.4c0.3,0.6,0.6,1.1,0.8,1.5l0,0c-0.1-0.6-0.1-1.2-0.1-1.9v-2h0.6v4.7H75l-1.5-2.4
			c-0.3-0.5-0.6-1.1-0.9-1.6l0,0c0,0.6,0,1.2,0,1.9v2H72.1z"/>
		<path class="st0" d="M79.9,6.1l-1.2-4.7h0.6l0.6,2.4c0.1,0.6,0.3,1.2,0.4,1.6h0c0.1-0.5,0.2-1,0.4-1.6l0.6-2.4H82l0.6,2.4
			c0.1,0.6,0.3,1.1,0.3,1.6h0c0.1-0.5,0.2-1,0.4-1.6l0.6-2.4h0.6l-1.3,4.7h-0.6l-0.6-2.5c-0.1-0.6-0.2-1.1-0.3-1.5h0
			c-0.1,0.5-0.2,0.9-0.4,1.5l-0.7,2.5H79.9z"/>
		<path class="st0" d="M87.9,4.6l-0.5,1.5h-0.6l1.6-4.7h0.7l1.6,4.7h-0.7l-0.5-1.5H87.9z M89.4,4.1L89,2.7c-0.1-0.3-0.2-0.6-0.2-0.9
			h0c-0.1,0.3-0.1,0.6-0.2,0.9L88,4.1H89.4z"/>
		<path class="st0" d="M93.9,1.3h0.6v4.2h2v0.5h-2.6V1.3z"/>
		<path class="st0" d="M99.9,1.9h-1.4V1.3h3.5v0.5h-1.4v4.2h-0.6V1.9z"/>
	</g>
</g>
</svg>
