<?xml version="1.0" encoding="utf-8"?>
<!-- Generator: Adobe Illustrator 27.9.0, SVG Export Plug-In . SVG Version: 6.00 Build 0)  -->
<svg version="1.1" id="Ebene_1" xmlns="http://www.w3.org/2000/svg" xmlns:xlink="http://www.w3.org/1999/xlink" x="0px" y="0px"
	 width="112px" height="23.9px" viewBox="0 0 112 23.9" style="enable-background:new 0 0 112 23.9;" xml:space="preserve">
<style type="text/css">
	.st0{fill:#636466;}
	.st1{font-family:'Reforma1918-Blanca';}
	.st2{font-size:14.3873px;}
</style>
<g>
	<g>
		<path class="st0" d="M9.9,9.6C8.6,9.2,7.6,8.9,7.1,8.5c-0.6,0.6-0.9,1.2-0.9,1.7c0,0.8,1.2,1.7,3.5,2.5l3.9,1.4l3,1.1
			c0.1,0,0.4,0.1,0.8,0.3c0.5-0.5,0.7-1.1,0.7-1.7C18.1,12.6,15.4,11.2,9.9,9.6z"/>
		<path class="st0" d="M8.5,2.2c0.4,0.8,1.7,1.7,4.1,2.5l4.3,1.5c3,1,4.5,2.7,4.5,4.9c0,1.8-0.9,3.5-2.6,5.1c1.3,1.1,2,2.5,2,4.1
			c0,0.5,0,1-0.1,1.4H22V2.2H8.5z"/>
		<path class="st0" d="M13,19.7c-3.8-1-6.4-2-7.8-2.9c-1.4-0.9-2-2.1-2-3.7c0-1.9,0.9-3.7,2.7-5.5c-1-0.9-1.5-2.2-1.5-3.7
			c0-0.6,0.1-1.2,0.2-1.7H2.3v19.6h14.4C16.3,20.9,15,20.2,13,19.7z"/>
	</g>
</g>
<text transform="matrix(1 0 0 1 28.8213 20.8373)" class="st0 st1 st2">S</text>
<text transform="matrix(1 0 0 1 36.5903 20.8373)" class="st0 st1 st2">T</text>
<text transform="matrix(1 0 0 1 46.5737 20.8373)" class="st0 st1 st2">R</text>
<text transform="matrix(1 0 0 1 57.1323 20.8373)" class="st0 st1 st2">I</text>
<text transform="matrix(1 0 0 1 63.3667 20.8373)" class="st0 st1 st2">E</text>
<text transform="matrix(1 0 0 1 71.9995 20.8373)" class="st0 st1 st2">F</text>
<text transform="matrix(1 0 0 1 80.0083 20.8373)" class="st0 st1 st2">L</text>
<text transform="matrix(1 0 0 1 88.2012 20.8373)" class="st0 st1 st2">E</text>
<text transform="matrix(1 0 0 1 96.8335 20.8373)" class="st0 st1 st2">R </text>
<g>
	<path class="st0" d="M30.5,3.5c0.3-0.1,0.8-0.1,1.2-0.1c0.7,0,1.1,0.1,1.4,0.4c0.2,0.2,0.4,0.5,0.4,0.9c0,0.6-0.4,1-0.9,1.2v0
		c0.4,0.1,0.6,0.5,0.7,1c0.2,0.7,0.3,1.1,0.4,1.3h-0.6c-0.1-0.1-0.2-0.5-0.3-1.1c-0.1-0.7-0.4-0.9-1-0.9h-0.6v2h-0.6V3.5z M31.1,5.7
		h0.6c0.7,0,1.1-0.4,1.1-0.9c0-0.6-0.4-0.9-1.1-0.9c-0.3,0-0.5,0-0.6,0V5.7z"/>
	<path class="st0" d="M39.2,6h-1.8v1.7h2v0.5h-2.7V3.5h2.6V4h-1.9v1.5h1.8V6z"/>
	<path class="st0" d="M45.9,8c-0.2,0.1-0.7,0.2-1.2,0.2c-1.3,0-2.3-0.8-2.3-2.4c0-1.5,1-2.5,2.5-2.5c0.6,0,1,0.1,1.1,0.2l-0.2,0.5
		c-0.2-0.1-0.6-0.2-0.9-0.2c-1.1,0-1.8,0.7-1.8,1.9c0,1.2,0.7,1.9,1.8,1.9c0.4,0,0.8-0.1,1-0.2L45.9,8z"/>
	<path class="st0" d="M49.7,3.5v2H52v-2h0.6v4.7H52V6h-2.3v2.2h-0.6V3.5H49.7z"/>
	<path class="st0" d="M57,4h-1.4V3.5h3.5V4h-1.4v4.2H57V4z"/>
	<path class="st0" d="M61.9,7.4c0.3,0.2,0.7,0.3,1.1,0.3c0.6,0,1-0.3,1-0.8c0-0.4-0.3-0.7-0.9-0.9c-0.8-0.3-1.2-0.7-1.2-1.3
		c0-0.7,0.6-1.3,1.5-1.3c0.5,0,0.8,0.1,1,0.2l-0.2,0.5c-0.1-0.1-0.5-0.2-0.9-0.2c-0.6,0-0.9,0.4-0.9,0.7c0,0.4,0.3,0.7,0.9,0.9
		c0.8,0.3,1.2,0.7,1.2,1.4c0,0.7-0.5,1.4-1.6,1.4c-0.5,0-1-0.1-1.2-0.3L61.9,7.4z"/>
	<path class="st0" d="M68.7,6.7l-0.5,1.5h-0.6l1.6-4.7h0.7l1.6,4.7h-0.7l-0.5-1.5H68.7z M70.2,6.2l-0.5-1.4
		c-0.1-0.3-0.2-0.6-0.2-0.9h0c-0.1,0.3-0.1,0.6-0.2,0.9l-0.5,1.4H70.2z"/>
	<path class="st0" d="M74.7,8.2V3.5h0.7l1.5,2.4c0.3,0.6,0.6,1.1,0.8,1.5l0,0c-0.1-0.6-0.1-1.2-0.1-1.9v-2h0.6v4.7h-0.6l-1.5-2.4
		c-0.3-0.5-0.6-1.1-0.9-1.6l0,0c0,0.6,0,1.2,0,1.9v2H74.7z"/>
	<path class="st0" d="M82.5,8.2l-1.2-4.7h0.6l0.6,2.4c0.1,0.6,0.3,1.2,0.4,1.6h0c0.1-0.5,0.2-1,0.4-1.6l0.6-2.4h0.6l0.6,2.4
		c0.1,0.6,0.3,1.1,0.3,1.6h0c0.1-0.5,0.2-1,0.4-1.6l0.6-2.4h0.6l-1.3,4.7h-0.6l-0.6-2.5c-0.1-0.6-0.2-1.1-0.3-1.5h0
		c-0.1,0.5-0.2,0.9-0.4,1.5l-0.7,2.5H82.5z"/>
	<path class="st0" d="M90.5,6.7L90,8.2h-0.6l1.6-4.7h0.7l1.6,4.7h-0.7l-0.5-1.5H90.5z M92,6.2l-0.5-1.4c-0.1-0.3-0.2-0.6-0.2-0.9h0
		c-0.1,0.3-0.1,0.6-0.2,0.9l-0.5,1.4H92z"/>
	<path class="st0" d="M96.4,3.5H97v4.2h2v0.5h-2.6V3.5z"/>
	<path class="st0" d="M102.5,4H101V3.5h3.5V4h-1.4v4.2h-0.6V4z"/>
</g>
</svg>
